<svg id="Layer_1" data-name="Layer 1" xmlns="http://www.w3.org/2000/svg" width="200" height="200" viewBox="0 0 200 200">
  <defs>
    <style>
      .cls-1 {
        fill: #d2d0cf;
      }
    </style>
  </defs>
  <path id="Attach" class="cls-1" d="M43.46,161.46a52.23,52.23,0,0,0,73.81,0l51.67-51.67A7,7,0,0,0,159.1,100l-51.67,51.67A38.28,38.28,0,0,1,53.3,97.49l54.13-54.13a24.36,24.36,0,0,1,34.45,34.45L92.67,127a10.44,10.44,0,1,1-14.76-14.76l46.75-46.75a7,7,0,0,0-9.85-9.84L68.07,102.41a24.36,24.36,0,0,0,34.44,34.45l49.21-49.21A38.28,38.28,0,0,0,97.59,33.52L43.46,87.65A52.25,52.25,0,0,0,43.46,161.46Z"/>
</svg>
